<?xml version="1.0" encoding="UTF-8"?>
<svg width="20px" height="20px" viewBox="0 0 20 20" version="1.1" xmlns="http://www.w3.org/2000/svg" xmlns:xlink="http://www.w3.org/1999/xlink">
    <!-- Generator: Sketch 52.5 (67469) - http://www.bohemiancoding.com/sketch -->
    <title>VK.com-logo</title>
    <desc>Created with Sketch.</desc>
    <g id="Page-1" stroke="none" stroke-width="1" fill="none" fill-rule="evenodd">
        <g id="VK.com-logo">
            <path d="M6.93333333,0 C12.5333333,0 7.46666667,0 13.0666667,0 C18.6666667,0 20,1.33333333 20,6.93333333 C20,12.5333333 20,7.46666667 20,13.0666667 C20,18.6666667 18.6666667,20 13.0666667,20 C7.46666667,20 12.5333333,20 6.93333333,20 C1.33333333,20 0,18.6666667 0,13.0666667 C0,7.46666667 0,10.0604509 0,6.93333333 C0,1.33333333 1.33333333,0 6.93333333,0 Z" id="Path" fill="#5181B8"></path>
            <path d="M16.3785409,6.89023136 C16.4712039,6.58122624 16.378541,6.35416667 15.9375254,6.35416667 L14.4791921,6.35416667 C14.1083859,6.35416667 13.9374391,6.55031286 13.8447246,6.76660359 C13.8447246,6.76660359 13.1031123,8.5742643 12.0525206,9.74845806 C11.7126278,10.0883508 11.5581124,10.1964962 11.3727093,10.1964962 C11.2800206,10.1964962 11.1458333,10.0883508 11.1458333,9.77937144 L11.1458333,6.89023136 C11.1458333,6.51942521 11.0382229,6.35416667 10.7291921,6.35416667 L8.43752543,6.35416667 C8.20580373,6.35416667 8.06644447,6.52626627 8.06644447,6.6893716 C8.06644447,7.04088904 8.59171461,7.12195306 8.64585876,8.11076947 L8.64585876,10.2583229 C8.64585876,10.7291667 8.56082696,10.8145322 8.37542389,10.8145322 C7.8810414,10.8145322 6.67845466,8.99879594 5.9652096,6.92111902 C5.82543076,6.51729059 5.68523474,6.35416667 5.31252543,6.35416667 L3.85419209,6.35416667 C3.43752543,6.35416667 3.35418701,6.55031286 3.35418701,6.76660359 C3.35418701,7.15286644 3.84859522,9.0686725 5.6562302,11.6024631 C6.86131161,13.3328404 8.55919218,14.2708333 10.1041921,14.2708333 C11.0311818,14.2708333 11.1458588,14.0625 11.1458588,13.7036466 L11.1458588,12.3958333 C11.1458588,11.9791667 11.2336763,11.8960116 11.5272247,11.8960116 C11.7435155,11.8960116 12.1143217,12.0041569 12.9795359,12.8384579 C13.9683267,13.8272485 14.1313419,14.2708333 14.6875254,14.2708333 L16.1458588,14.2708333 C16.5625254,14.2708333 16.7708588,14.0625 16.6506745,13.6513658 C16.5191569,13.2416053 16.0470627,12.6470974 15.4206379,11.9423559 C15.0807194,11.5406621 14.5708802,11.1080806 14.4163648,10.8917384 C14.2000741,10.6136724 14.2618751,10.4900447 14.4163648,10.2428663 C14.4163648,10.2428663 16.1931378,7.73996331 16.3785409,6.89023136 Z" id="Path" fill="#FFFFFF"></path>
        </g>
    </g>
</svg>